<svg width="152" height="49" viewBox="0 0 152 49" fill="none" xmlns="http://www.w3.org/2000/svg">
<g clip-path="url(#clip0_249_82)">
<path d="M0.562469 18.7637H12.009C16.7564 18.7637 19.9175 22.1114 19.9175 26.6749C19.9175 29.6438 18.7926 31.4873 17.0882 32.6578C19.2932 33.6192 21.0031 35.7567 21.0031 39.6078C21.0031 44.963 17.9657 48.0619 12.2621 48.0619H0.562469V18.7637ZM11.0134 31.2328C13.9271 31.2328 16.177 30.1018 16.177 26.6693C16.177 23.9097 14.3433 22.1906 11.0134 22.1906H4.22424V31.2328H11.0078H11.0134ZM11.7221 44.6237C15.1758 44.6237 17.257 42.9498 17.257 39.6021C17.257 36.2544 15.2602 34.5805 11.7221 34.5805H4.22424V44.6237H11.7165H11.7221Z" fill="#3A5EA9" stroke="#3B5EA9" stroke-linecap="round" stroke-linejoin="round"/>
<path d="M22.4769 35.9207V30.8991C22.4769 22.9087 26.6392 18.3848 33.9684 18.3848C41.2976 18.3848 45.46 22.9031 45.46 30.8991V35.9207C45.46 43.9111 41.2976 48.4351 33.9684 48.4351C26.6392 48.4351 22.4769 43.9168 22.4769 35.9207ZM33.9684 44.8781C39.5876 44.8781 41.7138 41.406 41.7138 35.9207V30.8991C41.7138 25.4195 39.5933 21.9417 33.9684 21.9417C28.3436 21.9417 26.223 25.4138 26.223 30.8991V35.9207C26.223 41.406 28.3436 44.8781 33.9684 44.8781Z" fill="#3A5EA9" stroke="#3B5EA9" stroke-linecap="round" stroke-linejoin="round"/>
<path d="M47.5917 18.7637H58.7064C64.1175 18.7637 67.5318 21.6533 67.5318 26.6297C67.5318 32.1546 64.1175 34.7049 58.7064 34.7049H52.4235L69.073 48.0562H63.1219L51.2591 38.3071V48.0562H47.5974V18.7637H47.5917ZM58.4983 31.278C61.6201 31.278 63.7406 30.1923 63.7406 26.6749C63.7406 23.1576 61.6201 22.1114 58.4983 22.1114H51.2535V31.278H58.4983Z" fill="#3A5EA9" stroke="#3B5EA9" stroke-linecap="round" stroke-linejoin="round"/>
<path d="M71.0811 18.7637H80.3227C88.0681 18.7637 92.2305 23.7457 92.2305 31.7361V35.0838C92.2305 43.0742 88.0681 48.0562 80.3227 48.0562H71.0811V18.7637ZM88.4787 35.0838V31.7361C88.4787 26.2565 86.3581 22.3206 80.3227 22.3206H74.7429V44.4993H80.3227C86.3581 44.4993 88.4787 40.5634 88.4787 35.0838Z" fill="#3A5EA9" stroke="#3B5EA9" stroke-linecap="round" stroke-linejoin="round"/>
<path d="M131.914 19.2107H142.612C148.023 19.2107 151.438 22.1004 151.438 27.0767C151.438 32.6016 147.315 35.152 142.196 35.152H135.575L135.739 47.6098H132.077L131.914 19.2051V19.2107ZM142.404 31.7251C145.526 31.7251 147.652 30.6394 147.652 27.122C147.652 23.6046 145.531 22.5585 142.404 22.5585H135.575V31.7251H142.404Z" fill="#3A5EA9" stroke="#3B5EA9" stroke-linecap="round" stroke-linejoin="round"/>
<path d="M132.071 6.8038V11.4126L127.678 6.8038V37.3404C127.678 44.0811 123.887 48.0565 116.935 48.0565C109.982 48.0565 106.281 44.0811 106.281 37.3404L106.135 18.617H109.881L110.027 37.2556C110.027 41.6099 111.94 44.5788 116.935 44.5788C121.93 44.5788 123.926 41.6099 123.926 37.2556V6.87731L119.376 11.4861V6.87731L123.926 2.35337L125.704 0.566406L127.678 2.35337L132.071 6.8038Z" fill="#3A5EA9" stroke="#3B5EA9" stroke-linecap="round" stroke-linejoin="round"/>
<path d="M97.8778 18.3848H101.81L101.613 18.9729C100.448 22.4902 98.5247 25.7079 95.9766 28.3883L93.0686 26.0076L93.9292 25.0463C95.6673 23.1066 97.006 20.839 97.8778 18.3848Z" fill="#3A5EA9" stroke="#3B5EA9" stroke-linecap="round" stroke-linejoin="round"/>
</g>
<defs>
<clipPath id="clip0_249_82">
<rect width="152" height="49" fill="white"/>
</clipPath>
</defs>
</svg>
